<?xml version="1.0" encoding="UTF-8" standalone="no"?> <svg xmlns="http://www.w3.org/2000/svg" version="1.0" width="900.000000pt" height="900.000000pt" viewBox="0 0 900.000000 900.000000" preserveAspectRatio="xMidYMid meet"><metadata> Created by potrace 1.15, written by Peter Selinger 2001-2017 </metadata><g transform="translate(0.000000,900.000000) scale(0.100000,-0.100000)" fill="#000000" stroke="none"><path d="M5460 8991 c0 -5 -10 -13 -22 -17 -13 -4 -38 -18 -57 -33 -51 -39 -211 -202 -256 -260 -22 -28 -55 -69 -73 -91 -29 -34 -32 -42 -20 -53 8 -8 24 -18 36 -21 12 -4 22 -12 22 -17 0 -5 5 -9 11 -9 25 0 318 -273 319 -298 1 -4 19 -25 40 -47 26 -26 40 -34 40 -24 0 8 10 25 23 36 34 31 70 76 87 109 8 16 27 43 42 59 16 17 28 33 28 38 0 14 93 67 118 67 14 0 21 4 16 11 -11 18 50 -18 72 -43 81 -89 101 -245 45 -362 -35 -72 -81 -115 -178 -166 -35 -17 -63 -35 -63 -38 0 -3 25 -55 55 -116 52 -107 117 -264 131 -319 3 -15 8 -27 10 -27 2 0 41 19 86 43 147 75 297 239 356 387 52 131 56 156 56 350 0 148 -3 197 -17 245 -10 33 -24 84 -32 112 -18 64 -93 217 -141 284 -18 27 -34 52 -34 55 0 12 -84 88 -133 122 l-48 32 -259 0 c-154 0 -260 -4 -260 -9z"></path><path d="M786 8403 c-1 -2 -23 -7 -47 -12 -144 -30 -304 -97 -435 -184 -98 -66 -248 -212 -279 -272 l-25 -50 0 -513 c0 -560 -5 -506 58 -607 30 -47 252 -275 268 -275 6 0 19 -9 30 -21 10 -12 42 -32 69 -46 28 -14 57 -31 65 -37 23 -18 148 -65 232 -86 61 -16 227 -7 293 15 67 23 158 79 190 117 52 62 69 108 69 188 0 82 -13 117 -61 162 -27 25 -133 68 -170 68 -10 0 -35 5 -56 11 -31 8 -37 14 -32 30 4 11 2 19 -4 19 -6 0 -11 -7 -11 -15 0 -19 -13 -19 -81 1 -95 28 -181 78 -237 138 -61 64 -117 175 -133 264 -14 71 -7 196 12 218 25 30 97 54 165 54 129 0 246 -86 318 -235 51 -104 50 -99 31 -159 -10 -31 -16 -59 -13 -62 3 -3 17 31 31 75 45 137 160 391 177 391 5 0 30 -29 55 -64 92 -130 173 -180 290 -180 56 0 80 6 122 27 199 103 186 389 -32 674 -30 40 -55 77 -55 83 0 5 -8 10 -18 10 -11 0 -27 10 -38 21 -30 33 -139 108 -212 146 -94 49 -205 87 -282 98 -45 7 -249 13 -254 8z"></path><path d="M5025 7551 c-70 -32 -124 -113 -132 -199 l-5 -47 43 47 c52 56 101 84 161 93 87 13 218 -28 328 -103 24 -17 46 -29 49 -27 6 6 -42 66 -91 115 -53 52 -141 113 -187 128 -50 17 -120 14 -166 -7z"></path><path d="M3065 7228 c-53 -19 -124 -78 -169 -142 -40 -55 -96 -163 -96 -183 0 -4 35 26 78 67 104 101 189 144 281 144 69 0 106 -14 169 -61 18 -14 35 -23 37 -21 8 7 -48 104 -78 137 -59 62 -146 86 -222 59z"></path><path d="M5155 7085 c-102 -22 -154 -52 -243 -142 -89 -90 -126 -153 -159 -273 -25 -90 -25 -322 0 -440 55 -261 175 -499 323 -640 38 -36 68 -68 67 -71 -1 -3 15 -11 35 -18 20 -8 45 -20 55 -29 9 -8 20 -12 24 -9 3 4 1 7 -5 7 -7 0 -12 5 -12 10 0 6 20 8 53 4 75 -9 145 9 270 67 141 67 164 72 257 52 161 -34 293 -14 336 52 15 24 16 36 5 140 -7 63 -28 175 -46 249 -19 74 -39 175 -46 223 -6 48 -15 98 -20 111 -5 13 -9 49 -9 81 0 66 -3 72 -90 141 -93 75 -187 168 -223 220 -98 141 -240 234 -405 266 -86 16 -89 16 -167 -1z m260 -416 c162 -97 256 -287 257 -517 0 -112 -8 -159 -44 -252 -35 -92 -110 -177 -186 -211 -62 -27 -70 -24 -35 14 115 122 137 389 46 572 -30 61 -58 88 -71 69 -13 -19 -80 -44 -120 -44 -77 0 -167 61 -179 120 -13 66 -52 56 -127 -32 -20 -23 -39 -39 -42 -35 -10 9 36 127 72 189 41 67 90 112 158 145 44 21 62 24 132 20 72 -3 89 -7 139 -38z"></path><path d="M3055 6804 c-88 -21 -120 -32 -190 -64 -187 -87 -331 -243 -372 -403 -18 -72 -37 -113 -195 -417 -118 -226 -168 -386 -168 -535 0 -220 141 -474 311 -561 89 -45 239 -44 348 2 88 37 148 71 224 126 110 80 131 90 341 163 272 94 339 125 421 197 96 84 134 189 143 388 14 357 -99 687 -308 900 -140 143 -262 200 -435 206 -55 2 -109 1 -120 -2z m264 -430 c60 -32 146 -119 185 -187 102 -174 113 -429 27 -613 -36 -78 -100 -148 -163 -180 -62 -32 -78 -30 -46 4 69 73 98 171 99 324 0 88 -4 120 -26 182 -25 76 -63 146 -78 146 -5 0 -21 -9 -36 -19 -34 -25 -90 -35 -145 -27 -55 9 -119 62 -147 122 l-20 45 -30 -18 c-31 -18 -70 -58 -88 -91 -5 -9 -13 -14 -17 -10 -11 12 34 137 68 191 40 62 118 132 171 151 66 25 182 15 246 -20z"></path><path d="M6780 5870 c-8 -5 -25 -10 -38 -10 -78 0 -231 -142 -298 -275 -25 -49 -71 -212 -80 -279 -4 -39 -13 -57 -39 -80 -51 -48 -59 -53 -132 -87 -37 -18 -74 -35 -82 -38 -8 -4 -31 -49 -51 -99 -84 -209 -217 -372 -407 -499 -102 -69 -268 -141 -298 -129 -11 4 -19 -2 -25 -20 -19 -49 -119 -190 -177 -248 -138 -139 -295 -218 -480 -240 -80 -10 -230 18 -341 64 l-96 39 -81 -38 c-139 -66 -321 -118 -570 -162 -116 -21 -162 -23 -425 -24 -302 0 -377 6 -570 46 -100 21 -277 70 -346 95 l-41 16 -51 -54 c-54 -57 -91 -107 -118 -161 -9 -17 -20 -34 -24 -37 -11 -7 -110 -306 -110 -330 0 -10 -4 -29 -10 -42 -5 -13 -14 -77 -20 -143 -25 -268 -39 -379 -55 -435 -37 -131 -51 -169 -121 -317 -72 -152 -161 -275 -309 -428 -100 -104 -84 -96 -305 -134 -139 -25 -207 -44 -283 -82 -77 -39 -112 -71 -143 -131 -21 -41 -24 -61 -24 -146 0 -62 5 -112 14 -133 8 -19 17 -63 21 -99 11 -92 30 -139 78 -188 40 -42 122 -92 150 -92 7 0 33 -21 57 -46 73 -75 202 -124 287 -111 108 18 144 28 213 58 92 39 117 40 200 4 62 -27 69 -27 185 -22 142 7 195 24 347 113 87 51 198 227 198 313 0 20 13 46 40 78 121 148 168 207 185 234 6 9 31 47 57 85 25 38 76 130 113 204 37 74 70 142 75 150 4 8 15 41 24 73 l17 57 103 48 c240 114 415 264 804 692 364 400 575 597 807 752 298 199 663 323 971 329 74 2 85 -1 169 -41 50 -23 119 -55 154 -71 35 -16 108 -54 161 -84 106 -59 127 -64 212 -41 138 37 228 73 301 120 29 18 77 49 108 69 30 20 61 43 68 51 8 9 19 16 25 16 12 0 176 167 227 231 22 27 36 34 80 40 84 11 201 49 229 74 25 22 154 85 175 85 21 0 141 40 185 62 129 64 180 143 180 280 0 39 -5 86 -12 104 -13 35 -13 31 38 174 22 64 26 90 25 173 -1 63 -7 113 -18 140 -20 52 -93 129 -144 152 -33 15 -40 25 -54 74 -30 101 -56 148 -119 210 -78 77 -137 101 -251 101 -80 0 -142 -15 -197 -48 -24 -14 -33 -15 -61 -3 -109 44 -136 51 -197 51 -36 0 -72 -5 -80 -10z m678 -160 c70 -43 93 -139 52 -219 -66 -131 -270 -59 -270 96 0 109 125 179 218 123z m-470 -30 c49 -30 72 -75 72 -140 -1 -68 -38 -143 -90 -178 -30 -20 -44 -23 -90 -19 -30 3 -68 12 -83 20 -37 20 -77 95 -77 146 0 82 34 130 125 180 33 17 107 13 143 -9z m695 -346 c93 -22 112 -172 32 -243 -40 -35 -62 -38 -108 -15 -51 26 -66 44 -81 95 -25 82 8 154 79 172 20 4 25 4 78 -9z m-490 -158 c26 -8 65 -28 87 -46 109 -86 121 -261 27 -385 -44 -58 -73 -78 -126 -83 -215 -20 -357 243 -236 438 30 48 48 61 103 76 62 17 90 17 145 0z m451 -310 c53 -22 76 -60 76 -124 0 -95 -65 -156 -138 -130 -64 23 -102 75 -102 141 0 96 77 149 164 113z"></path><path d="M4760 5450 c-175 -28 -351 -104 -437 -187 -51 -49 -53 -53 -53 -105 0 -173 255 -312 535 -293 96 6 101 8 167 51 244 162 293 448 90 519 -56 20 -223 28 -302 15z"></path><path d="M4879 4670 c-50 -95 -144 -163 -266 -195 -74 -19 -243 -19 -325 0 -75 17 -167 50 -182 65 -5 5 -14 10 -19 10 -11 0 182 -191 246 -244 84 -69 209 -131 295 -148 31 -5 94 -8 140 -5 197 14 316 128 392 377 13 41 27 79 32 84 4 6 8 17 8 27 0 14 -9 16 -69 11 -80 -5 -131 8 -183 49 l-37 29 -32 -60z m87 -296 c18 5 33 0 53 -17 35 -29 28 -52 -26 -94 -106 -84 -245 -112 -384 -79 -100 25 -181 76 -118 76 11 0 18 4 15 9 -16 26 178 35 195 9 3 -5 21 -11 40 -14 30 -5 36 -2 52 25 10 17 24 31 31 31 8 0 16 8 18 18 7 25 68 54 85 40 7 -6 24 -7 39 -4z"></path><path d="M8289 3900 c-84 -27 -130 -54 -175 -102 -45 -46 -84 -115 -84 -147 0 -11 -7 -26 -16 -33 -130 -104 -206 -205 -244 -327 -16 -50 -31 -59 -68 -41 -90 42 -233 85 -337 101 -56 9 -258 27 -315 28 -47 2 -165 -10 -200 -19 -19 -4 -62 -14 -95 -20 -73 -15 -115 -30 -115 -41 0 -5 18 -38 40 -73 132 -217 196 -429 207 -686 15 -364 -72 -712 -255 -1023 -18 -31 -32 -62 -30 -68 2 -6 24 6 50 25 26 20 51 36 56 36 5 0 19 11 32 25 13 14 29 25 36 25 6 0 17 6 23 14 6 8 42 28 79 46 37 17 74 38 83 46 17 15 85 38 164 56 63 14 205 14 270 0 28 -6 70 -15 95 -20 42 -9 60 -15 143 -43 114 -40 345 -114 417 -134 34 -9 184 -26 240 -27 152 -1 320 48 422 125 69 51 143 126 176 177 20 30 39 57 42 60 3 3 20 29 38 58 l32 52 0 624 0 624 -34 0 c-52 0 -93 27 -115 75 -28 63 -31 77 -32 149 -1 77 18 121 62 143 34 18 63 13 97 -18 l22 -20 0 67 c0 65 -2 69 -37 104 -60 59 -154 102 -223 102 -40 0 -61 5 -71 16 -17 20 -80 52 -138 70 -63 19 -174 17 -242 -6z m347 -255 c78 -83 85 -286 13 -364 -44 -47 -125 -10 -165 78 -50 106 -45 227 10 286 47 49 95 49 142 0z m-350 -252 c48 -52 58 -82 59 -178 0 -78 -3 -96 -25 -135 -26 -47 -49 -57 -96 -46 -53 14 -88 67 -105 160 -16 83 0 162 38 200 37 37 95 36 129 -1z m467 -487 c76 -31 146 -140 183 -281 25 -95 24 -304 -1 -390 -25 -85 -68 -177 -95 -200 -17 -15 -35 -20 -75 -18 -68 2 -122 30 -160 82 -16 22 -33 41 -37 41 -5 0 -8 5 -8 11 0 6 -6 25 -14 42 -48 104 -61 178 -60 337 1 164 15 233 66 318 38 62 129 89 201 58z"></path><path d="M4825 2761 c-60 -10 -145 -44 -200 -82 -43 -29 -137 -124 -173 -175 -19 -28 -29 -32 -84 -38 -185 -20 -277 -56 -367 -144 -197 -195 -249 -589 -136 -1042 9 -36 20 -81 25 -101 12 -46 67 -205 86 -246 8 -18 21 -52 30 -75 8 -23 21 -49 28 -58 7 -8 28 -46 46 -83 18 -37 37 -70 41 -73 5 -3 16 -22 26 -42 9 -20 28 -51 42 -68 14 -18 44 -58 66 -89 50 -72 228 -241 315 -300 66 -44 130 -73 185 -82 17 -3 47 -12 68 -21 31 -13 35 -18 20 -23 -10 -4 -39 -5 -64 -2 -29 3 -49 1 -53 -6 -5 -8 55 -11 216 -10 196 1 218 3 183 14 l-40 13 30 7 c92 22 212 76 274 124 42 33 158 149 192 193 50 64 161 275 199 381 12 31 28 64 37 72 8 9 13 18 10 21 -3 3 4 33 14 67 11 34 28 103 39 152 12 50 25 108 30 130 36 152 45 265 45 550 0 269 -2 296 -22 373 -39 143 -104 241 -205 309 -58 39 -107 58 -208 83 -170 42 -219 66 -270 130 -82 103 -269 165 -425 141z m130 -290 c116 -52 180 -233 144 -403 -16 -74 -43 -106 -105 -124 -56 -16 -87 -12 -144 16 -33 17 -100 83 -100 99 0 5 -7 21 -15 38 -35 71 -48 218 -23 267 39 76 108 126 173 126 17 0 48 -9 70 -19z m-630 -277 c110 -52 179 -239 146 -394 -13 -62 -56 -131 -76 -124 -7 3 -16 1 -20 -5 -10 -18 -100 -13 -147 8 -24 10 -53 29 -65 42 -25 28 -72 119 -79 152 -22 114 -22 126 -9 183 11 49 21 66 59 101 26 23 56 44 69 46 48 9 90 6 122 -9z m1318 -30 c109 -75 156 -307 90 -442 -32 -66 -131 -91 -213 -53 -54 24 -69 36 -96 76 -43 61 -64 140 -64 236 0 86 2 93 31 135 64 88 166 107 252 48z m-627 -684 c88 -16 161 -56 234 -130 112 -112 170 -258 170 -431 0 -152 -59 -257 -190 -336 -99 -60 -124 -68 -235 -68 -94 0 -104 3 -169 35 -158 79 -257 227 -297 445 -14 77 -6 123 38 215 67 138 201 247 335 269 29 5 53 9 54 10 0 0 27 -4 60 -9z"></path></g></svg> 